<svg xmlns="http://www.w3.org/2000/svg" width="960" height="220" viewBox="0 0 960 220" role="img" aria-labelledby="title desc">
  <title id="title">Work Light</title>
  <desc id="desc">Pixel-style Work Light banner with a small traffic light and cream block lettering.</desc>
  <rect width="960" height="220" fill="#101814"/>
  <rect x="18" y="18" width="924" height="184" fill="#17261f"/>
  <rect x="18" y="18" width="924" height="16" fill="#254538"/>
  <rect x="18" y="186" width="924" height="16" fill="#0b0f0d"/>
  <rect x="18" y="18" width="16" height="184" fill="#254538"/>
  <rect x="926" y="18" width="16" height="184" fill="#0b0f0d"/>

  <g transform="translate(74 48)">
    <rect x="0" y="0" width="86" height="124" rx="0" fill="#0b0f0d"/>
    <rect x="8" y="8" width="70" height="108" fill="#18231e"/>
    <rect x="20" y="18" width="46" height="22" fill="#3a1618"/>
    <rect x="26" y="14" width="34" height="34" fill="#e94b4b"/>
    <rect x="20" y="52" width="46" height="22" fill="#3a3214"/>
    <rect x="26" y="48" width="34" height="34" fill="#f6c744"/>
    <rect x="20" y="86" width="46" height="22" fill="#173524"/>
    <rect x="26" y="82" width="34" height="34" fill="#54d17a"/>
    <rect x="34" y="124" width="18" height="28" fill="#0b0f0d"/>
    <rect x="18" y="152" width="50" height="12" fill="#0b0f0d"/>
  </g>

  <g fill="#f5e8bd" font-family="Consolas, 'Courier New', monospace" font-weight="800">
    <text x="198" y="118" font-size="72" letter-spacing="4">WORK LIGHT</text>
    <text x="204" y="155" font-size="24" letter-spacing="3" fill="#8bbf9c">CODEX STATUS SIGNAL</text>
  </g>

  <g fill="#f5e8bd">
    <rect x="198" y="58" width="14" height="14"/>
    <rect x="808" y="142" width="14" height="14"/>
    <rect x="836" y="142" width="14" height="14"/>
    <rect x="864" y="142" width="14" height="14"/>
  </g>
</svg>
